<svg width="515" height="405" viewBox="0 0 515 405" fill="none" xmlns="http://www.w3.org/2000/svg">
<path d="M371.52 121.176C389.323 115.055 398.797 95.653 392.683 77.8385C386.564 60.0245 367.177 50.5444 349.372 56.6643C331.568 62.7841 322.094 82.1868 328.21 100.001C334.327 117.815 353.718 127.295 371.52 121.176Z" fill="#DADDDF"/>
<path opacity="0.05" d="M371.52 121.176C389.323 115.055 398.797 95.653 392.683 77.8385C386.564 60.0245 367.177 50.5444 349.372 56.6643C331.568 62.7841 322.094 82.1868 328.21 100.001C334.327 117.815 353.718 127.295 371.52 121.176Z" fill="black"/>
<path d="M360.266 122.566C379.04 121.16 393.119 104.793 391.712 86.0092C390.309 67.2257 373.951 53.1381 355.178 54.544C336.406 55.9494 322.327 72.3165 323.731 91.0999C325.136 109.884 341.493 123.971 360.266 122.566Z" fill="#DADDDF"/>
<path opacity="0.4" d="M360.266 122.566C379.04 121.16 393.119 104.793 391.712 86.0092C390.309 67.2257 373.951 53.1381 355.178 54.544C336.406 55.9494 322.327 72.3165 323.731 91.0999C325.136 109.884 341.493 123.971 360.266 122.566Z" fill="white"/>
<path d="M371.563 112.102C384.583 104.46 388.95 87.7001 381.312 74.6686C373.674 61.6376 356.926 57.2687 343.903 64.9111C330.879 72.5535 326.513 89.3131 334.151 102.345C341.789 115.376 358.538 119.745 371.563 112.102Z" fill="#DADDDF"/>
<path opacity="0.05" d="M354.631 107.248L354.957 103.335C350.558 102.767 348.479 101.074 348.927 95.7533C349.012 94.6085 349.191 93.473 349.463 92.3585L355.032 92.8249C354.921 93.335 354.844 93.8521 354.803 94.373C354.608 96.6812 354.65 98.0009 356.905 98.1921C359.161 98.3833 359.436 97.5952 359.701 94.6295C359.823 93.1746 359.864 92.6756 359.119 91.9016C357.595 90.2088 353.568 88.8053 351.728 87.2385C350.073 85.8862 349.817 84.1422 350.208 79.4744C350.674 74.1025 352.417 72.4284 357.558 72.6056L357.819 69.5L360.978 69.7658L360.717 72.8714C365.42 73.4683 366.934 75.2636 366.533 80.0339C366.449 81.0598 366.294 82.0792 366.067 83.0836L360.55 82.6173C360.633 82.151 360.675 81.6847 360.741 80.9153C360.918 78.8076 360.703 77.7257 358.597 77.5485C356.789 77.3993 356.239 77.9589 356.029 80.4676C355.81 83.079 355.941 83.3448 357.581 84.2401C359.366 85.252 361.127 85.9561 362.67 86.8421C364.832 88.1384 366.3 88.7633 365.862 93.9347C365.252 101.218 363.686 103.615 358.136 103.55L357.8 107.514L354.631 107.248Z" fill="black"/>
<path opacity="0.05" d="M331.828 87.3685C332.435 80.1402 335.888 73.4491 341.425 68.7669C346.962 64.0851 354.131 61.7955 361.356 62.4022C366.99 62.8685 372.648 65.5918 376.735 68.8886C374.167 66.3402 371.114 64.3276 367.759 62.9674C364.408 61.6076 360.818 60.9273 357.2 60.9664C353.582 61.0056 350.007 61.7629 346.684 63.1949C343.361 64.627 340.355 66.7049 337.841 69.3083C335.326 71.9112 333.353 74.9884 332.036 78.3607C330.719 81.7326 330.085 85.333 330.17 88.9525C330.254 92.572 331.056 96.1388 332.529 99.4454C334.001 102.753 336.116 105.734 338.749 108.217C336.237 105.192 334.406 101.661 333.38 97.8651C332.476 94.7315 331.539 90.8192 331.828 87.3685Z" fill="black"/>
<path d="M198.196 35.6658C207.49 32.4711 212.435 22.3428 209.243 13.0437C206.05 3.74452 195.928 -1.20443 186.634 1.99026C177.34 5.18495 172.395 15.3137 175.587 24.6128C178.78 33.912 188.902 38.8605 198.196 35.6658Z" fill="#DADDDF"/>
<path opacity="0.05" d="M198.196 35.6658C207.49 32.4711 212.435 22.3428 209.243 13.0437C206.05 3.74452 195.928 -1.20443 186.634 1.99026C177.34 5.18495 172.395 15.3137 175.587 24.6128C178.78 33.912 188.902 38.8605 198.196 35.6658Z" fill="black"/>
<path d="M192.325 36.4024C202.124 35.6684 209.474 27.1247 208.74 17.3195C208.007 7.51398 199.469 0.160274 189.669 0.894246C179.87 1.62775 172.52 10.1715 173.254 19.9771C173.987 29.7822 182.526 37.1359 192.325 36.4024Z" fill="#DADDDF"/>
<path opacity="0.4" d="M192.325 36.4024C202.124 35.6684 209.474 27.1247 208.74 17.3195C208.007 7.51398 199.469 0.160274 189.669 0.894246C179.87 1.62775 172.52 10.1715 173.254 19.9771C173.987 29.7822 182.526 37.1359 192.325 36.4024Z" fill="white"/>
<path d="M198.224 30.9358C205.025 26.9456 207.304 18.1943 203.317 11.3899C199.328 4.58555 190.582 2.30436 183.782 6.29457C176.982 10.2853 174.702 19.0365 178.69 25.8409C182.678 32.6453 191.424 34.9265 198.224 30.9358Z" fill="#DADDDF"/>
<path opacity="0.05" d="M189.653 28.4344L189.826 26.3919C187.528 26.0935 186.442 25.2122 186.675 22.4329C186.723 21.8356 186.816 21.2434 186.955 20.661L189.863 20.9034C189.806 21.1697 189.766 21.4388 189.742 21.7102C189.644 22.9179 189.663 23.6081 190.842 23.706C192.021 23.8039 192.161 23.3935 192.291 21.8407C192.356 21.0806 192.375 20.8195 191.988 20.4185C191.191 19.5325 189.09 18.8004 188.129 17.9797C187.267 17.2756 187.132 16.3662 187.337 13.9274C187.57 11.1296 188.488 10.2483 191.173 10.3415L191.308 8.71875L192.958 8.85864L192.822 10.4814C195.278 10.7938 196.085 11.7311 195.861 14.2119C195.819 14.7472 195.738 15.2783 195.619 15.802L192.729 15.5549C192.78 15.2616 192.814 14.9659 192.832 14.6689C192.92 13.5684 192.832 13.0041 191.713 12.9109C190.781 12.8316 190.478 13.1254 190.371 14.4357C190.264 15.7461 190.324 15.9372 191.182 16.4036C192.114 16.9305 193.046 17.2989 193.838 17.7605C194.966 18.4367 195.73 18.7677 195.507 21.491C195.185 25.2914 194.37 26.5411 191.471 26.5085L191.294 28.5789L189.653 28.4344Z" fill="black"/>
<path opacity="0.05" d="M177.479 18.0216C177.635 16.1526 178.158 14.3331 179.017 12.6665C179.877 10.9994 181.056 9.51891 182.487 8.30837C183.92 7.09783 185.575 6.18199 187.361 5.61216C189.147 5.04233 191.028 4.83063 192.895 4.98824C195.842 5.32398 198.63 6.49908 200.929 8.37365C199.596 7.00829 198.003 5.92459 196.243 5.18596C194.484 4.44732 192.595 4.06914 190.687 4.07427C188.779 4.07893 186.891 4.46644 185.136 5.21393C183.38 5.96143 181.793 7.05353 180.466 8.42542C179.14 9.79777 178.102 11.4219 177.414 13.2023C176.726 14.9827 176.401 16.8833 176.46 18.7915C176.519 20.6996 176.959 22.5765 177.755 24.3112C178.551 26.0459 179.687 27.6034 181.095 28.8913C179.785 27.3128 178.831 25.4691 178.299 23.4868C177.814 21.8687 177.329 19.8216 177.479 18.0216Z" fill="black"/>
<path d="M56.1443 191.143C69.9825 186.386 77.3467 171.305 72.5928 157.459C67.8383 143.612 52.7665 136.243 38.9282 141C25.0899 145.757 17.7257 160.838 22.4797 174.685C27.2341 188.532 42.306 195.9 56.1443 191.143Z" fill="#DADDDF"/>
<path opacity="0.05" d="M56.1443 191.143C69.9825 186.386 77.3467 171.305 72.5928 157.459C67.8383 143.612 52.7665 136.243 38.9282 141C25.0899 145.757 17.7257 160.838 22.4797 174.685C27.2341 188.532 42.306 195.9 56.1443 191.143Z" fill="black"/>
<path d="M47.3764 192.199C61.9678 191.106 72.9111 178.385 71.8192 163.785C70.7273 149.184 58.0131 138.235 43.4222 139.327C28.8308 140.42 17.8875 153.141 18.9794 167.741C20.0713 182.341 32.7851 193.291 47.3764 192.199Z" fill="#DADDDF"/>
<path opacity="0.4" d="M47.3764 192.199C61.9678 191.106 72.9111 178.385 71.8192 163.785C70.7273 149.184 58.0131 138.235 43.4222 139.327C28.8308 140.42 17.8875 153.141 18.9794 167.741C20.0713 182.341 32.7851 193.291 47.3764 192.199Z" fill="white"/>
<path d="M56.1694 184.083C66.2916 178.143 69.6848 165.118 63.7485 154.99C57.8127 144.862 44.7951 141.467 34.6734 147.407C24.5517 153.347 21.1585 166.371 27.0943 176.499C33.0306 186.628 46.0478 190.023 56.1694 184.083Z" fill="#DADDDF"/>
<path opacity="0.05" d="M43.3943 180.334L43.6506 177.294C40.2299 176.828 38.6128 175.536 38.9577 171.4C39.0257 170.51 39.166 169.627 39.3771 168.761L43.7065 169.124C43.6217 169.521 43.5611 169.923 43.5248 170.327C43.3756 172.123 43.4083 173.149 45.1652 173.298C46.9221 173.447 47.1272 172.831 47.3229 170.528C47.4161 169.395 47.4488 169.008 46.8569 168.406C45.6685 167.091 42.5415 166 41.1107 164.783C39.8245 163.729 39.6241 162.377 39.927 158.749C40.2765 154.552 41.6467 153.27 45.6406 153.41L45.8409 150.994L48.2969 151.199L48.0965 153.615C51.7502 154.081 52.9293 155.48 52.617 159.183C52.5532 159.979 52.4348 160.771 52.2628 161.551L47.9707 161.192C48.0453 160.754 48.0951 160.312 48.1198 159.868C48.2596 158.227 48.0919 157.387 46.4561 157.252C45.058 157.135 44.6246 157.569 44.4568 159.518C44.2891 161.551 44.3916 161.757 45.6685 162.451C47.0666 163.235 48.4228 163.785 49.6205 164.475C51.3028 165.482 52.4399 165.967 52.1044 169.987C51.6384 175.648 50.4127 177.509 46.0973 177.448L45.8363 180.53L43.3943 180.334Z" fill="black"/>
<path opacity="0.05" d="M25.2772 164.855C25.5102 162.073 26.289 159.364 27.5687 156.882C28.8484 154.401 30.6039 152.196 32.7356 150.394C34.8667 148.592 37.332 147.227 39.9907 146.379C42.6489 145.53 45.4484 145.213 48.2292 145.448C52.6052 145.816 56.9998 147.924 60.1875 150.488C58.1803 148.549 55.8115 147.024 53.2152 146.001C50.6194 144.977 47.8475 144.476 45.0578 144.525C42.2677 144.574 39.5149 145.171 36.9564 146.285C34.3974 147.398 32.0831 149.005 30.1449 151.013C28.2067 153.021 26.6828 155.392 25.6603 157.989C24.6378 160.587 24.1364 163.36 24.1848 166.152C24.2338 168.943 24.8312 171.698 25.9441 174.258C27.0565 176.818 28.662 179.134 30.6692 181.074C28.7077 178.725 27.2765 175.979 26.4749 173.025C25.7805 170.577 25.0582 167.551 25.2772 164.855Z" fill="black"/>
<path d="M427.102 56.0083C435.892 52.9866 440.566 43.4077 437.546 34.6126C434.526 25.8175 424.954 21.1367 416.165 24.1584C407.375 27.1801 402.696 36.7591 405.716 45.5541C408.736 54.3492 418.308 59.03 427.102 56.0083Z" fill="#DADDDF"/>
<path opacity="0.05" d="M427.102 56.0083C435.892 52.9866 440.566 43.4077 437.546 34.6126C434.526 25.8175 424.954 21.1367 416.165 24.1584C407.375 27.1801 402.696 36.7591 405.716 45.5541C408.736 54.3492 418.308 59.03 427.102 56.0083Z" fill="black"/>
<path d="M422.266 59.584C431.559 58.9331 438.563 50.8664 437.916 41.5668C437.263 32.2671 429.201 25.2562 419.908 25.9071C410.616 26.5581 403.606 34.6243 404.259 43.9239C404.907 53.2236 412.969 60.235 422.266 59.584Z" fill="#DADDDF"/>
<path opacity="0.4" d="M422.266 59.584C431.559 58.9331 438.563 50.8664 437.916 41.5668C437.263 32.2671 429.201 25.2562 419.908 25.9071C410.616 26.5581 403.606 34.6243 404.259 43.9239C404.907 53.2236 412.969 60.235 422.266 59.584Z" fill="white"/>
<path d="M427.126 51.5304C433.553 47.7575 435.71 39.4837 431.94 33.05C428.17 26.6164 419.898 24.4597 413.472 28.2326C407.04 32.006 404.887 40.2797 408.657 46.7134C412.428 53.1466 420.695 55.3033 427.126 51.5304Z" fill="#DADDDF"/>
<path opacity="0.05" d="M418.77 49.1372L418.933 47.2067C416.761 46.9222 415.736 46.0875 415.955 43.4762C415.997 42.9101 416.085 42.3487 416.22 41.7975L418.97 42.0306C418.914 42.2829 418.877 42.538 418.853 42.7954C418.76 43.9332 418.779 44.586 419.897 44.6606C421.016 44.7352 421.142 44.3669 421.268 42.9026C421.323 42.1845 421.347 41.9374 420.979 41.555C420.228 40.7203 418.238 40.0255 417.33 39.2514C416.514 38.5846 416.397 37.7266 416.579 35.4184C416.803 32.7651 417.67 31.9397 420.205 32.0283L420.335 30.4941L421.897 30.6247L421.766 32.1589C424.096 32.4526 424.837 33.3433 424.642 35.6981C424.6 36.2032 424.525 36.7049 424.413 37.1997L421.687 36.9712C421.733 36.6933 421.766 36.413 421.785 36.1318C421.869 35.0873 421.785 34.5557 420.727 34.4671C419.832 34.3925 419.562 34.6723 419.455 35.9127C419.347 37.153 419.413 37.3116 420.224 37.7779C421.104 38.2769 421.976 38.6219 422.735 39.0603C423.803 39.6991 424.53 39.9929 424.315 42.5669C424.012 46.1575 423.239 47.3419 420.499 47.3139L420.331 49.2678L418.77 49.1372Z" fill="black"/>
<path opacity="0.05" d="M407.511 39.3165C407.814 35.7493 409.52 32.4478 412.251 30.1367C414.987 27.8252 418.524 26.693 422.089 26.9873C424.876 27.3058 427.513 28.4175 429.69 30.1908C428.441 28.8479 426.926 27.774 425.249 27.0339C423.571 26.2944 421.758 25.904 419.926 25.8873C418.09 25.8709 416.273 26.2277 414.581 26.9369C412.889 27.6462 411.356 28.6926 410.084 30.0127C408.807 31.3324 407.814 32.8982 407.167 34.6143C406.514 36.3303 406.221 38.161 406.3 39.995C406.379 41.8285 406.831 43.6271 407.628 45.2806C408.425 46.9342 409.548 48.4082 410.932 49.6127C409.688 48.113 408.784 46.3639 408.28 44.4832C407.828 42.9724 407.367 41.0372 407.511 39.3165Z" fill="black"/>
<path d="M265.102 390.508H421.157C424.475 390.508 427.663 391.827 430.012 394.178C432.361 396.528 433.68 399.713 433.68 403.038H254.369V401.247C254.367 399.839 254.644 398.44 255.182 397.134C255.721 395.833 256.511 394.649 257.509 393.651C258.506 392.653 259.689 391.86 260.992 391.324C262.295 390.783 263.692 390.508 265.102 390.508Z" fill="#21252B"/>
<path opacity="0.3" d="M265.102 390.508H421.157C424.475 390.508 427.663 391.827 430.012 394.178C432.361 396.528 433.68 399.713 433.68 403.038H254.369V401.247C254.367 399.839 254.644 398.44 255.182 397.134C255.721 395.833 256.511 394.649 257.509 393.651C258.506 392.653 259.689 391.86 260.992 391.324C262.295 390.783 263.692 390.508 265.102 390.508Z" fill="black"/>
<path d="M376.265 366.348H317.266V396.77H376.265V366.348Z" fill="#21252B"/>
<path d="M189.321 123.717H504.721C507.331 123.717 509.833 124.754 511.679 126.601C513.524 128.448 514.563 130.953 514.563 133.565V356.462C514.563 359.075 513.524 361.581 511.679 363.428C509.833 365.275 507.326 366.315 504.716 366.315H189.321C186.711 366.315 184.207 365.275 182.361 363.428C180.515 361.583 179.479 359.078 179.479 356.466V133.57C179.479 130.958 180.515 128.452 182.361 126.604C184.207 124.757 186.71 123.718 189.321 123.717Z" fill="#21252B"/>
<g opacity="0.3">
<path opacity="0.3" d="M189.321 123.717H504.721C507.331 123.717 509.833 124.754 511.679 126.601C513.524 128.448 514.563 130.953 514.563 133.565V356.462C514.563 359.075 513.524 361.581 511.679 363.428C509.833 365.275 507.326 366.315 504.716 366.315H189.321C186.711 366.315 184.207 365.275 182.361 363.428C180.515 361.583 179.479 359.078 179.479 356.466V133.57C179.479 130.958 180.515 128.452 182.361 126.604C184.207 124.757 186.71 123.718 189.321 123.717Z" fill="black"/>
</g>
<path d="M183.962 123.717H499.362C501.971 123.717 504.474 124.754 506.319 126.601C508.165 128.448 509.204 130.953 509.204 133.565V356.462C509.204 357.756 508.948 359.037 508.454 360.232C507.96 361.428 507.233 362.514 506.319 363.428C505.406 364.342 504.32 365.07 503.122 365.564C501.929 366.058 500.648 366.315 499.357 366.315H183.962C181.351 366.315 178.848 365.275 177.002 363.428C175.156 361.583 174.119 359.078 174.119 356.466V133.57C174.119 130.958 175.156 128.452 177.002 126.604C178.847 124.757 181.351 123.718 183.962 123.717Z" fill="#21252B"/>
<path opacity="0.3" d="M376.265 366.348H317.266V396.77H376.265V366.348Z" fill="black"/>
<path d="M371.161 366.348H312.162V396.77H371.161V366.348Z" fill="#21252B"/>
<path opacity="0.3" d="M371.072 366.348H312.051V371.715H371.072V366.348Z" fill="black"/>
<path d="M265.285 392.312H418.017C420.86 392.312 423.586 393.441 425.594 395.455C427.608 397.465 428.735 400.193 428.735 403.038H254.566C254.566 400.193 255.696 397.465 257.706 395.455C259.716 393.441 262.442 392.312 265.285 392.312Z" fill="#21252B"/>
<path d="M341.34 357.845C344.673 357.845 347.375 355.142 347.375 351.806C347.375 348.471 344.673 345.768 341.34 345.768C338.007 345.768 335.305 348.471 335.305 351.806C335.305 355.142 338.007 357.845 341.34 357.845Z" fill="#868A91"/>
<path opacity="0.2" d="M341.34 345.768C341.04 345.77 340.742 345.793 340.445 345.838C341.876 346.05 343.182 346.77 344.127 347.865C345.072 348.961 345.591 350.359 345.591 351.806C345.591 353.253 345.072 354.652 344.127 355.748C343.182 356.843 341.876 357.563 340.445 357.775C340.742 357.82 341.04 357.843 341.34 357.845C342.941 357.845 344.476 357.209 345.607 356.077C346.739 354.944 347.375 353.408 347.375 351.806C347.375 350.205 346.739 348.669 345.607 347.536C344.476 346.404 342.941 345.768 341.34 345.768Z" fill="black"/>
<path d="M186.645 130.564H496.677C497.874 130.564 499.025 131.041 499.874 131.889C500.722 132.737 501.197 133.888 501.197 135.088V337.718H182.125V135.088C182.125 133.888 182.601 132.737 183.449 131.889C184.297 131.041 185.446 130.564 186.645 130.564Z" fill="white"/>
<path d="M217.65 185.418H207.016V304.248H217.65V185.418Z" fill="#00B77E"/>
<path d="M238.178 225.779H227.543V304.25H238.178V225.779Z" fill="#00B77E"/>
<path d="M258.711 200.189H248.076V304.853H258.711V200.189Z" fill="#00B77E"/>
<path d="M279.24 190.008H268.605V304.249H279.24V190.008Z" fill="#00B77E"/>
<path d="M299.771 228.193H289.137V304.249H299.771V228.193Z" fill="#00B77E"/>
<path d="M320.297 243.107H309.662V304.25H320.297V243.107Z" fill="#00B77E"/>
<path d="M340.83 197.613H330.195V304.249H340.83V197.613Z" fill="#00B77E"/>
<path d="M361.361 216.84H350.727V304.25H361.361V216.84Z" fill="#00B77E"/>
<path d="M381.887 201.475H371.252V304.249H381.887V201.475Z" fill="#00B77E"/>
<path d="M402.418 234.232H391.783V304.249H402.418V234.232Z" fill="#00B77E"/>
<path d="M443.367 197.613H432.732V304.249H443.367V197.613Z" fill="#00B77E"/>
<path d="M486.971 266.223H476.336V302.711H486.971V266.223Z" fill="#00B77E"/>
<path d="M465.713 234.232H455.078V304.249H465.713V234.232Z" fill="#00B77E"/>
<path d="M422.949 220.912H412.314V304.251H422.949V220.912Z" fill="#00B77E"/>
<g opacity="0.2">
<path opacity="0.2" d="M217.205 184.973H206.57V303.802H217.205V184.973Z" fill="black"/>
</g>
<g opacity="0.2">
<path opacity="0.2" d="M237.732 225.33H227.098V303.801H237.732V225.33Z" fill="black"/>
</g>
<g opacity="0.2">
<path opacity="0.2" d="M258.268 199.738H247.633V304.402H258.268V199.738Z" fill="black"/>
</g>
<g opacity="0.2">
<path opacity="0.2" d="M278.795 189.561H268.16V303.802H278.795V189.561Z" fill="black"/>
</g>
<g opacity="0.2">
<path opacity="0.2" d="M299.324 227.746H288.689V303.801H299.324V227.746Z" fill="black"/>
</g>
<g opacity="0.2">
<path opacity="0.2" d="M319.852 242.66H309.217V303.803H319.852V242.66Z" fill="black"/>
</g>
<g opacity="0.2">
<path opacity="0.2" d="M340.383 197.166H329.748V303.802H340.383V197.166Z" fill="black"/>
</g>
<g opacity="0.2">
<path opacity="0.2" d="M360.912 216.393H350.277V303.802H360.912V216.393Z" fill="black"/>
</g>
<g opacity="0.2">
<path opacity="0.2" d="M381.441 201.025H370.807V303.8H381.441V201.025Z" fill="black"/>
</g>
<g opacity="0.2">
<path opacity="0.2" d="M401.971 233.785H391.336V303.802H401.971V233.785Z" fill="black"/>
</g>
<g opacity="0.2">
<path opacity="0.2" d="M442.92 197.166H432.285V303.802H442.92V197.166Z" fill="black"/>
</g>
<g opacity="0.2">
<path opacity="0.2" d="M486.523 265.773H475.889V302.262H486.523V265.773Z" fill="black"/>
</g>
<g opacity="0.2">
<path opacity="0.2" d="M465.266 233.785H454.631V303.802H465.266V233.785Z" fill="black"/>
</g>
<g opacity="0.2">
<path opacity="0.2" d="M422.504 220.465H411.869V303.804H422.504V220.465Z" fill="black"/>
</g>
<path d="M486.887 313.105H194.915V160.986C194.895 160.916 194.891 160.842 194.904 160.772C194.917 160.7 194.947 160.633 194.99 160.575C195.033 160.517 195.09 160.47 195.154 160.438C195.219 160.405 195.29 160.389 195.363 160.389C195.435 160.389 195.506 160.405 195.571 160.438C195.636 160.47 195.692 160.517 195.735 160.575C195.779 160.633 195.808 160.7 195.821 160.772C195.834 160.842 195.83 160.916 195.81 160.986V312.215H486.901C486.971 312.193 487.045 312.188 487.115 312.2C487.19 312.212 487.255 312.241 487.316 312.284C487.376 312.327 487.423 312.384 487.455 312.449C487.488 312.514 487.507 312.587 487.507 312.66C487.507 312.733 487.488 312.805 487.455 312.87C487.423 312.936 487.376 312.992 487.316 313.035C487.255 313.079 487.19 313.108 487.115 313.12C487.045 313.132 486.971 313.127 486.901 313.105H486.887Z" fill="black"/>
<path d="M213.68 216.914C214.813 215.432 216.08 214.057 217.464 212.806C218.172 212.204 218.861 211.565 219.602 211.01C219.971 210.726 220.334 210.432 220.707 210.152L221.849 209.346C224.91 207.213 228.19 205.417 231.635 203.988C238.54 201.045 246.019 199.697 253.516 200.043C261.03 200.51 268.306 202.861 274.674 206.879C275.494 207.345 276.235 207.914 277.004 208.441C277.773 208.968 278.551 209.5 279.259 210.111L281.435 211.887C282.13 212.517 282.806 213.165 283.491 213.804L284.511 214.764L285.471 215.79L287.387 217.847C287.997 218.555 288.575 219.287 289.172 220.01C289.768 220.733 290.383 221.437 290.91 222.211L292.555 224.487C292.825 224.869 293.114 225.238 293.366 225.629L294.121 226.814L297.127 231.533C298.12 233.1 299.14 234.671 300.104 236.266C301.069 237.861 302.03 239.465 302.971 241.074C306.732 247.509 310.427 253.995 314.482 260.192C318.536 266.39 323.015 272.405 328.397 277.502C331.071 280.057 334.044 282.279 337.252 284.119C340.452 285.936 343.951 287.168 347.583 287.756C351.224 288.302 354.934 288.169 358.526 287.364C360.325 286.967 362.092 286.44 363.816 285.788C365.538 285.127 367.222 284.372 368.863 283.526C372.134 281.802 375.252 279.799 378.183 277.539C381.049 275.209 383.664 272.585 385.985 269.71C390.687 263.974 394.602 257.618 398.535 251.295C402.468 244.972 406.369 238.597 410.801 232.582C413 229.561 415.354 226.652 417.847 223.867C420.34 221.079 423.025 218.466 425.877 216.047C431.572 211.17 438.04 207.282 445.017 204.543C452.007 201.884 459.347 200.265 466.808 199.74C474.251 199.212 481.721 199.423 489.122 200.369C481.721 199.497 474.255 199.358 466.827 199.954C459.403 200.55 452.11 202.23 445.17 204.939C438.264 207.7 431.865 211.596 426.24 216.466C423.421 218.887 420.774 221.5 418.318 224.286C415.853 227.067 413.532 229.971 411.36 232.988C406.989 239.003 403.111 245.364 399.197 251.701C395.282 258.038 391.363 264.422 386.614 270.227C384.26 273.158 381.604 275.833 378.691 278.21C377.95 278.789 377.2 279.367 376.426 279.889L375.275 280.691C374.889 280.957 374.488 281.204 374.096 281.461C372.53 282.491 370.899 283.419 369.245 284.305C367.581 285.176 365.869 285.954 364.119 286.637C362.357 287.304 360.55 287.846 358.712 288.259C355.016 289.094 351.197 289.235 347.449 288.674C343.711 288.067 340.112 286.794 336.823 284.916C333.561 283.038 330.538 280.769 327.824 278.159C322.376 272.978 317.898 266.921 313.815 260.677C309.733 254.433 306.065 247.919 302.318 241.484C301.386 239.874 300.437 238.272 299.471 236.681C298.511 235.086 297.5 233.538 296.512 231.948L293.534 227.224L292.779 226.026C292.532 225.634 292.242 225.266 291.981 224.888L290.365 222.622C289.843 221.852 289.228 221.157 288.654 220.43C288.081 219.703 287.494 218.984 286.893 218.276L285.029 216.228L284.097 215.212L283.09 214.251C282.414 213.617 281.753 212.974 281.068 212.344L278.924 210.577C278.225 209.966 277.456 209.453 276.701 208.912C275.946 208.371 275.214 207.807 274.403 207.355C268.127 203.349 260.947 200.984 253.521 200.477C246.075 200.07 238.633 201.345 231.747 204.207C228.293 205.596 225 207.355 221.924 209.453L220.777 210.246C220.4 210.521 220.036 210.81 219.668 211.094C218.913 211.64 218.223 212.27 217.51 212.866C216.114 214.097 214.832 215.452 213.68 216.914Z" fill="black"/>
<path d="M438.401 210.137C439.496 210.137 440.381 209.25 440.381 208.156C440.381 207.061 439.496 206.174 438.401 206.174C437.305 206.174 436.42 207.061 436.42 208.156C436.42 209.25 437.305 210.137 438.401 210.137Z" fill="black"/>
<path d="M355.778 290.29C356.871 290.29 357.758 289.402 357.758 288.308C357.758 287.214 356.871 286.326 355.778 286.326C354.683 286.326 353.797 287.214 353.797 288.308C353.797 289.402 354.683 290.29 355.778 290.29Z" fill="black"/>
<path d="M274.031 208.403C275.125 208.403 276.012 207.516 276.012 206.421C276.012 205.327 275.125 204.439 274.031 204.439C272.937 204.439 272.051 205.327 272.051 206.421C272.051 207.516 272.937 208.403 274.031 208.403Z" fill="black"/>
<path d="M335.1 53.3164H112.678V226.527H335.1V53.3164Z" fill="#F4F4F4" stroke="#868A91" stroke-miterlimit="10"/>
<path d="M158.134 76.0762H122.129V78.0813H158.134V76.0762Z" fill="#B2B6BB"/>
<path d="M139.922 80.7656H122.129V82.7707H139.922V80.7656Z" fill="#B2B6BB"/>
<path d="M305.822 206.594V213.248H307.7V206.594H305.822Z" fill="#61656D"/>
<path d="M276.785 206.594V213.248H278.663V206.594H276.785Z" fill="#61656D"/>
<path d="M247.75 206.594V213.248H249.628V206.594H247.75Z" fill="#61656D"/>
<path d="M218.713 206.594V213.248H220.591V206.594H218.713Z" fill="#61656D"/>
<path d="M189.678 206.594V213.248H191.556V206.594H189.678Z" fill="#61656D"/>
<path d="M160.641 206.594V213.248H162.519V206.594H160.641Z" fill="#61656D"/>
<path d="M149.181 201.643H142.656V203.522H149.181V201.643Z" fill="#61656D"/>
<path d="M149.181 176.521H142.656V178.401H149.181V176.521Z" fill="#61656D"/>
<path d="M149.181 129.246H142.656V131.125H149.181V129.246Z" fill="#61656D"/>
<path d="M149.181 105.494H142.656V107.373H149.181V105.494Z" fill="#61656D"/>
<path d="M149.511 152.885H142.986V154.764H149.511V152.885Z" fill="#61656D"/>
<path d="M160.475 198.434V177.45L173.523 157.157L182.378 163.965L200.553 135.683L211.272 143.246L226.185 117.156L238.301 127.042L256.584 92.4746L276.157 131.155L292.002 111.799L310.643 106.455V198.458L160.475 198.434Z" fill="#00B77E"/>
<path d="M160.475 198.434V177.45L173.523 157.157L182.378 163.965L200.553 135.683L211.272 143.246L226.185 117.156L238.301 127.042L256.584 92.4746L276.157 131.155L292.002 111.799L310.643 106.455V198.458L160.475 198.434Z" fill="#00B77E"/>
<path d="M312.539 99.0015H312.208H311.234L307.449 99.0342L293.128 99.0901L293.226 99.0435C289.032 104.495 283.854 111.284 277.847 119.095L277.796 119.165H277.707L239.288 119.202L239.474 119.1L223.34 146.029L207.495 172.403L207.328 172.683L207.132 172.417L186.314 143.791H186.617L167.655 173.406C165.38 176.936 163.6 179.701 162.375 181.594L160.976 183.735C160.66 184.201 160.482 184.458 160.482 184.458C160.482 184.458 160.627 184.196 160.948 183.707L162.291 181.538L167.482 173.289L186.31 143.595L186.454 143.366L186.613 143.585L207.495 172.166H207.132L222.977 145.782L239.144 118.885L239.209 118.782H239.33L277.749 118.82L277.61 118.89L293.054 98.8943L293.091 98.8477H293.152L307.473 98.9036L311.257 98.9362H312.231C312.427 98.9735 312.539 99.0015 312.539 99.0015Z" fill="black"/>
<path d="M192.747 150.411C192.763 150.706 192.69 151 192.538 151.253C192.385 151.506 192.16 151.708 191.891 151.832C191.623 151.956 191.324 151.997 191.032 151.949C190.74 151.9 190.469 151.766 190.255 151.562C190.041 151.358 189.892 151.095 189.829 150.806C189.766 150.517 189.791 150.215 189.9 149.941C190.01 149.666 190.2 149.431 190.445 149.265C190.69 149.1 190.979 149.012 191.275 149.012C191.655 149.005 192.023 149.147 192.298 149.409C192.574 149.671 192.735 150.031 192.747 150.411Z" fill="#263238"/>
<path d="M237.059 125.204C237.07 125.498 236.993 125.79 236.838 126.04C236.682 126.291 236.455 126.489 236.186 126.609C235.917 126.73 235.618 126.767 235.328 126.716C235.037 126.665 234.769 126.528 234.557 126.323C234.345 126.119 234.199 125.855 234.138 125.567C234.076 125.278 234.103 124.978 234.214 124.705C234.324 124.431 234.514 124.197 234.759 124.033C235.003 123.868 235.292 123.781 235.586 123.782C235.776 123.778 235.966 123.812 236.143 123.881C236.319 123.951 236.481 124.055 236.618 124.187C236.755 124.319 236.864 124.477 236.94 124.651C237.016 124.826 237.056 125.014 237.059 125.204Z" fill="#263238"/>
<path d="M270.035 120.434C270.848 120.434 271.508 119.798 271.508 119.012C271.508 118.227 270.848 117.59 270.035 117.59C269.222 117.59 268.562 118.227 268.562 119.012C268.562 119.798 269.222 120.434 270.035 120.434Z" fill="#263238"/>
<path d="M152.504 90.6094V203.456H310.488" stroke="black" stroke-miterlimit="10" stroke-linecap="round"/>
<path d="M159.029 106.465H312.353" stroke="black" stroke-miterlimit="10" stroke-linecap="round"/>
<path d="M159.262 130.479H312.585" stroke="black" stroke-miterlimit="10" stroke-linecap="round"/>
<path d="M159.496 154.494H312.82" stroke="black" stroke-miterlimit="10" stroke-linecap="round"/>
<path d="M159.727 178.51H313.05" stroke="black" stroke-miterlimit="10" stroke-linecap="round"/>
<path d="M334.722 53.3027H112.893V67.292H334.722V53.3027Z" fill="#868A91"/>
<path d="M121.971 60.4504C121.971 60.7899 121.87 61.1219 121.681 61.404C121.493 61.6866 121.225 61.9062 120.911 62.0359C120.597 62.166 120.253 62.1995 119.919 62.1328C119.587 62.0662 119.281 61.9025 119.041 61.6619C118.802 61.4217 118.639 61.1154 118.573 60.782C118.508 60.449 118.542 60.1039 118.673 59.7901C118.803 59.4767 119.024 59.2091 119.307 59.0212C119.589 58.8332 119.921 58.7334 120.26 58.7344C120.486 58.7344 120.708 58.7787 120.916 58.8649C121.124 58.9512 121.313 59.0776 121.472 59.2371C121.631 59.3965 121.756 59.5859 121.842 59.7938C121.927 60.0023 121.971 60.2252 121.971 60.4504Z" fill="white"/>
<path d="M127.883 60.4504C127.883 60.7894 127.783 61.1214 127.594 61.4036C127.406 61.6857 127.138 61.9058 126.825 62.0359C126.511 62.1655 126.167 62.1996 125.834 62.1333C125.501 62.0671 125.195 61.9034 124.955 61.6638C124.716 61.4236 124.552 61.1177 124.486 60.7852C124.42 60.4523 124.454 60.1072 124.584 59.7934C124.713 59.48 124.933 59.2119 125.215 59.0235C125.497 58.8346 125.829 58.7344 126.168 58.7344C126.394 58.7335 126.617 58.7778 126.825 58.8636C127.034 58.9498 127.223 59.0762 127.382 59.2357C127.542 59.3952 127.668 59.5845 127.754 59.7929C127.84 60.0014 127.884 60.2247 127.883 60.4504Z" fill="white"/>
<path d="M133.793 60.4504C133.793 60.7899 133.692 61.1219 133.504 61.404C133.315 61.6866 133.047 61.9062 132.733 62.0359C132.42 62.166 132.075 62.1995 131.742 62.1328C131.409 62.0662 131.104 61.9025 130.864 61.6619C130.624 61.4217 130.461 61.1154 130.396 60.782C130.33 60.449 130.365 60.1039 130.495 59.7901C130.625 59.4767 130.846 59.2091 131.129 59.0212C131.412 58.8332 131.743 58.7334 132.083 58.7344C132.308 58.7344 132.531 58.7787 132.738 58.8649C132.946 58.9512 133.135 59.0776 133.294 59.2371C133.453 59.3965 133.579 59.5859 133.664 59.7938C133.75 60.0023 133.794 60.2252 133.793 60.4504Z" fill="white"/>
<path d="M94.795 388.289H37.7344V395.536H94.795V388.289Z" fill="#61656D"/>
<path opacity="0.2" d="M48.4729 388.289H37.6191V395.536H48.4729V388.289Z" fill="black"/>
<path opacity="0.2" d="M88.0067 388.289H80.0469V395.536H88.0067V388.289Z" fill="white"/>
<path d="M94.795 373.797H37.7344V381.043H94.795V373.797Z" fill="#61656D"/>
<path opacity="0.2" d="M48.4729 373.797H37.6191V381.043H48.4729V373.797Z" fill="black"/>
<path opacity="0.2" d="M88.0067 373.797H80.0469V381.043H88.0067V373.797Z" fill="white"/>
<path d="M94.795 352.057H37.7344V359.303H94.795V352.057Z" fill="#61656D"/>
<path opacity="0.2" d="M48.4729 352.057H37.6191V359.303H48.4729V352.057Z" fill="black"/>
<path opacity="0.2" d="M88.0067 352.057H80.0469V359.303H88.0067V352.057Z" fill="white"/>
<path d="M101.588 395.533H44.5273V402.78H101.588V395.533Z" fill="#61656D"/>
<path opacity="0.2" d="M55.6702 395.133H44.8164V402.379H55.6702V395.133Z" fill="black"/>
<path opacity="0.2" d="M94.7957 395.533H86.8359V402.78H94.7957V395.533Z" fill="white"/>
<path d="M101.588 366.549H44.5273V373.795H101.588V366.549Z" fill="#61656D"/>
<path opacity="0.2" d="M55.6702 366.549H44.8164V373.795H55.6702V366.549Z" fill="black"/>
<path opacity="0.2" d="M94.7957 366.549H86.8359V373.795H94.7957V366.549Z" fill="white"/>
<path d="M101.588 359.305H44.5273V366.551H101.588V359.305Z" fill="#61656D"/>
<path opacity="0.2" d="M55.6702 359.305H44.8164V366.551H55.6702V359.305Z" fill="black"/>
<path opacity="0.2" d="M94.7957 359.305H86.8359V366.551H94.7957V359.305Z" fill="white"/>
<path d="M101.588 381.041H44.5273V388.288H101.588V381.041Z" fill="#61656D"/>
<path opacity="0.2" d="M55.6702 381.041H44.8164V388.288H55.6702V381.041Z" fill="black"/>
<path opacity="0.2" d="M94.7957 381.041H86.8359V388.288H94.7957V381.041Z" fill="white"/>
<g opacity="0.3">
<path opacity="0.3" d="M94.7979 395.305H44.5273V395.762H94.7979V395.305Z" fill="black"/>
</g>
<g opacity="0.3">
<path opacity="0.3" d="M94.7979 388.059H44.5273V388.516H94.7979V388.059Z" fill="black"/>
</g>
<g opacity="0.3">
<path opacity="0.3" d="M94.7979 380.812H44.5273V381.269H94.7979V380.812Z" fill="black"/>
</g>
<g opacity="0.3">
<path opacity="0.3" d="M94.7979 373.566H44.5273V374.023H94.7979V373.566Z" fill="black"/>
</g>
<g opacity="0.3">
<path opacity="0.3" d="M101.588 366.32H44.5273V366.777H101.588V366.32Z" fill="black"/>
</g>
<g opacity="0.3">
<path opacity="0.3" d="M101.588 359.074H44.5273V359.531H101.588V359.074Z" fill="black"/>
</g>
<path d="M37.9265 401.555C51.1879 396.999 58.245 382.543 53.6891 369.277C49.1332 356.007 34.6895 348.946 21.4282 353.504C8.16683 358.063 1.10975 372.513 5.66566 385.784C10.2216 399.055 24.6652 406.115 37.9265 401.555Z" fill="#61656D"/>
<path opacity="0.2" d="M37.9265 401.555C51.1879 396.999 58.245 382.543 53.6891 369.277C49.1332 356.007 34.6895 348.946 21.4282 353.504C8.16683 358.063 1.10975 372.513 5.66566 385.784C10.2216 399.055 24.6652 406.115 37.9265 401.555Z" fill="black"/>
<path d="M27.5205 404.581C41.5428 403.597 52.1142 391.426 51.1328 377.395C50.1513 363.364 37.9884 352.788 23.9661 353.77C9.94415 354.752 -0.627274 366.922 0.354185 380.953C1.33564 394.984 13.4986 405.56 27.5205 404.581Z" fill="#61656D"/>
<path opacity="0.2" d="M27.5205 404.581C41.5428 403.597 52.1142 391.426 51.1328 377.395C50.1513 363.364 37.9884 352.788 23.9661 353.77C9.94415 354.752 -0.627274 366.922 0.354185 380.953C1.33564 394.984 13.4986 405.56 27.5205 404.581Z" fill="white"/>
<path d="M37.9564 394.796C47.6587 389.103 50.9111 376.615 45.2209 366.906C39.5311 357.2 27.0532 353.946 17.3514 359.639C7.64916 365.335 4.39675 377.818 10.0865 387.526C15.7762 397.235 28.2542 400.49 37.9564 394.796Z" fill="#61656D"/>
<path opacity="0.2" d="M8.33832 376.368C8.79037 370.982 11.3615 365.997 15.4867 362.509C19.612 359.021 24.9527 357.314 30.3349 357.766C34.5292 358.121 38.7234 360.144 41.7992 362.597C39.8764 360.738 37.6063 359.276 35.1187 358.295C32.631 357.314 29.9747 356.832 27.301 356.878C24.6279 356.924 21.9892 357.496 19.537 358.562C17.0843 359.629 14.866 361.168 13.0079 363.092C11.1499 365.018 9.68888 367.289 8.70788 369.774C7.72736 372.264 7.24595 374.922 7.29209 377.599C7.33776 380.276 7.91005 382.915 8.97539 385.368C10.0407 387.82 11.5791 390.04 13.5019 391.901C11.6322 389.644 10.2672 387.014 9.49874 384.188C8.823 381.852 8.12395 378.937 8.33832 376.368Z" fill="black"/>
<path d="M25.228 391.192L25.4703 388.278C22.2081 387.853 20.6422 386.59 20.9731 382.626C21.0402 381.773 21.1744 380.929 21.3739 380.099L25.5262 380.448C25.4433 380.826 25.3855 381.213 25.3538 381.6C25.2093 383.321 25.2373 384.305 26.9197 384.445C28.602 384.585 28.7838 383.978 28.9888 381.791C29.0774 380.709 29.11 380.332 28.5554 379.758C27.4183 378.495 24.4217 377.455 23.0516 376.284C21.8166 375.277 21.6256 373.981 21.9192 370.502C22.2547 366.496 23.5642 365.251 27.3903 365.373L27.5861 363.041L29.9395 363.237L29.7438 365.568C33.2483 366.035 34.3761 367.35 34.0779 370.903C34.0173 371.668 33.904 372.428 33.7377 373.174L29.6273 372.829C29.6977 372.409 29.7457 371.985 29.7718 371.561C29.9022 369.989 29.7438 369.187 28.1733 369.052C26.8264 368.94 26.4163 369.36 26.2579 371.229C26.0948 373.174 26.1927 373.37 27.4183 374.027C28.7465 374.778 30.056 375.305 31.2071 375.967C32.8196 376.932 33.9101 377.399 33.5885 381.25C33.1225 386.674 31.9668 388.46 27.8284 388.413L27.5814 391.365L25.228 391.192Z" fill="#F4F4F4"/>
<path d="M465.513 378.321C466.063 378.563 466.557 378.913 466.967 379.351C467.382 379.79 467.699 380.307 467.908 380.872C468.319 382.005 468.458 383.217 468.328 384.415C468.137 386.747 466.902 389.079 465.532 390.99C463.537 389.354 463.001 386.411 462.819 384.9C462.535 382.513 463.472 378.022 465.499 378.321" fill="#00B77E"/>
<path d="M468.178 395.046C467.954 394.412 467.903 393.726 468.034 393.069C468.159 392.407 468.458 391.791 468.9 391.283C469.352 390.784 469.898 390.378 470.504 390.094C471.109 389.805 471.771 389.646 472.442 389.613C472.75 389.567 473.062 389.59 473.36 389.679C473.659 389.763 473.934 389.916 474.167 390.122C474.348 390.345 474.469 390.616 474.516 390.905C474.558 391.189 474.525 391.483 474.418 391.754C474.195 392.295 473.836 392.766 473.374 393.12C471.85 394.398 470.14 395.354 468.178 395.046Z" fill="#00B77E"/>
<path d="M463.509 395.112C463.229 393.722 462.623 392.416 461.742 391.302C460.862 390.192 459.725 389.306 458.434 388.723C457.776 388.434 456.924 388.257 456.402 388.756C455.88 389.255 456.029 390.122 456.313 390.784C456.928 392.16 457.935 393.321 459.207 394.128C460.479 394.93 461.961 395.34 463.467 395.303" fill="#00B77E"/>
<path d="M465.316 381.867C465.438 383.56 465.545 385.253 465.624 386.945C465.703 388.638 465.764 390.331 465.824 392.028C465.885 393.725 465.904 395.414 465.918 397.111C465.932 398.808 465.918 400.501 465.862 402.198L465.549 392.033L465.414 386.955C465.368 385.257 465.34 383.565 465.316 381.867Z" fill="#21252B"/>
<path d="M466.145 401.923C466.182 400.888 466.322 399.857 466.559 398.85C466.792 397.834 467.132 396.845 467.58 395.903C468.027 394.956 468.647 394.099 469.411 393.38C469.803 393.026 470.236 392.728 470.702 392.49C471.173 392.266 471.672 392.112 472.184 392.023C471.192 392.285 470.283 392.802 469.556 393.525C468.838 394.248 468.251 395.092 467.827 396.015C467.38 396.938 467.025 397.899 466.764 398.892C466.494 399.89 466.284 400.902 466.145 401.923Z" fill="#21252B"/>
<path d="M465.593 401.922C465.453 400.9 465.244 399.893 464.973 398.9C464.717 397.907 464.358 396.946 463.911 396.023C463.487 395.1 462.9 394.256 462.182 393.533C461.455 392.81 460.546 392.292 459.549 392.031C460.066 392.115 460.565 392.274 461.036 392.498C461.502 392.735 461.935 393.039 462.326 393.388C463.091 394.106 463.711 394.964 464.158 395.911C464.605 396.853 464.946 397.842 465.179 398.858C465.416 399.865 465.551 400.891 465.593 401.922Z" fill="#21252B"/>
<path d="M186.829 377.856C187.379 378.098 187.875 378.448 188.286 378.886C188.698 379.325 189.017 379.842 189.225 380.407C189.634 381.54 189.777 382.752 189.644 383.951C189.453 386.282 188.218 388.614 186.848 390.526C184.853 388.889 184.318 385.946 184.136 384.436C183.852 382.048 184.788 377.558 186.815 377.856" fill="#00B77E"/>
<path d="M189.493 394.579C189.271 393.945 189.221 393.259 189.348 392.602C189.474 391.94 189.774 391.324 190.215 390.816C190.666 390.317 191.211 389.911 191.819 389.627C192.427 389.338 193.086 389.179 193.757 389.147C194.064 389.1 194.378 389.123 194.676 389.212C194.974 389.296 195.249 389.45 195.482 389.655C195.666 389.879 195.787 390.149 195.831 390.438C195.875 390.723 195.841 391.016 195.733 391.287C195.511 391.828 195.151 392.299 194.689 392.653C193.165 393.931 191.455 394.887 189.493 394.579Z" fill="#00B77E"/>
<path d="M184.823 394.643C184.545 393.253 183.939 391.947 183.057 390.833C182.174 389.723 181.04 388.837 179.748 388.254C179.091 387.965 178.238 387.788 177.716 388.287C177.194 388.786 177.343 389.653 177.628 390.315C178.241 391.691 179.248 392.852 180.521 393.659C181.794 394.461 183.276 394.871 184.781 394.834" fill="#00B77E"/>
<path d="M186.631 381.402C186.752 383.095 186.86 384.788 186.939 386.48C187.018 388.173 187.078 389.866 187.139 391.563C187.199 393.261 187.219 394.949 187.233 396.646C187.247 398.343 187.233 400.036 187.177 401.733L186.864 391.568L186.729 386.49C186.682 384.792 186.654 383.1 186.631 381.402Z" fill="#21252B"/>
<path d="M187.455 401.456C187.493 400.421 187.632 399.391 187.87 398.383C188.102 397.367 188.445 396.378 188.89 395.436C189.337 394.49 189.959 393.632 190.722 392.914C191.111 392.559 191.545 392.261 192.013 392.023C192.483 391.799 192.982 391.645 193.495 391.557C192.501 391.818 191.594 392.335 190.866 393.058C190.148 393.781 189.562 394.625 189.137 395.548C188.69 396.472 188.334 397.432 188.075 398.425C187.804 399.423 187.597 400.435 187.455 401.456Z" fill="#21252B"/>
<path d="M186.908 401.455C186.765 400.434 186.558 399.426 186.288 398.433C186.028 397.44 185.673 396.479 185.225 395.556C184.8 394.633 184.215 393.789 183.496 393.066C182.767 392.343 181.858 391.826 180.863 391.564C181.378 391.648 181.878 391.807 182.35 392.031C182.817 392.269 183.251 392.572 183.641 392.921C184.404 393.64 185.025 394.498 185.472 395.444C185.918 396.386 186.26 397.375 186.493 398.391C186.728 399.398 186.867 400.424 186.908 401.455Z" fill="#21252B"/>
<path d="M143.916 306.534C144.377 306.534 144.828 306.398 145.211 306.141C145.594 305.885 145.893 305.521 146.069 305.095C146.245 304.669 146.291 304.2 146.202 303.748C146.112 303.295 145.89 302.88 145.564 302.554C145.238 302.228 144.823 302.006 144.371 301.916C143.919 301.826 143.45 301.872 143.025 302.048C142.599 302.225 142.235 302.524 141.979 302.907C141.723 303.291 141.586 303.742 141.586 304.203C141.586 304.821 141.832 305.414 142.269 305.851C142.705 306.289 143.298 306.534 143.916 306.534Z" fill="#B2B6BB"/>
<path opacity="0.15" d="M143.059 304.182C143.058 303.695 143.209 303.22 143.492 302.823C143.774 302.427 144.174 302.129 144.634 301.971C144.39 301.879 144.13 301.834 143.87 301.836C143.248 301.836 142.652 302.083 142.212 302.523C141.772 302.963 141.525 303.559 141.525 304.182C141.525 304.804 141.772 305.4 142.212 305.84C142.652 306.28 143.248 306.527 143.87 306.527C144.13 306.528 144.389 306.482 144.634 306.392C144.178 306.227 143.783 305.927 143.502 305.532C143.22 305.137 143.066 304.666 143.059 304.182Z" fill="black"/>
<path d="M143.916 342.798C144.377 342.798 144.828 342.661 145.211 342.405C145.594 342.149 145.893 341.785 146.069 341.359C146.245 340.933 146.291 340.464 146.202 340.012C146.112 339.559 145.89 339.144 145.564 338.818C145.238 338.492 144.823 338.27 144.371 338.18C143.919 338.09 143.45 338.136 143.025 338.312C142.599 338.489 142.235 338.788 141.979 339.171C141.723 339.555 141.586 340.005 141.586 340.466C141.586 341.085 141.832 341.678 142.269 342.115C142.705 342.553 143.298 342.798 143.916 342.798Z" fill="#B2B6BB"/>
<path opacity="0.15" d="M143.056 340.453C143.055 339.966 143.206 339.492 143.489 339.095C143.771 338.699 144.17 338.401 144.631 338.243C144.387 338.149 144.128 338.103 143.867 338.108C143.534 338.118 143.207 338.199 142.908 338.346C142.61 338.492 142.346 338.701 142.135 338.959C141.924 339.216 141.77 339.516 141.684 339.838C141.598 340.159 141.583 340.496 141.638 340.824C141.693 341.153 141.817 341.466 142.003 341.742C142.19 342.018 142.433 342.251 142.716 342.425C143 342.6 143.318 342.711 143.648 342.752C143.978 342.793 144.314 342.763 144.631 342.664C144.17 342.506 143.771 342.208 143.489 341.812C143.206 341.415 143.055 340.94 143.056 340.453Z" fill="black"/>
<path d="M133.624 393.674L162.877 394.392L151.226 386.05C150.264 385.364 149.469 384.469 148.904 383.429C148.339 382.389 148.018 381.233 147.964 380.053L147.559 370.895L131.648 370.941L133.624 393.674Z" fill="#FC9D9D"/>
<path opacity="0.15" d="M136.869 382.987V382.81C136.82 382.321 136.962 381.836 137.264 381.449C137.566 381.062 138.006 380.805 138.491 380.735L147.811 379.383L147.723 377.518H132.139L133.537 393.032L146.297 391.633L142.102 389.968C140.671 389.404 139.424 388.448 138.5 387.217C137.576 385.986 137.011 384.522 136.869 382.987Z" fill="black"/>
<path d="M80.9316 393.132H94.0923L96.5297 370.852L80.9782 370.894L80.9316 393.132Z" fill="#FC9D9D"/>
<path opacity="0.15" d="M84.224 389.389L84.5409 382.534C84.5624 382.096 84.7362 381.681 85.0326 381.359C85.3295 381.037 85.7293 380.832 86.1627 380.776L95.6278 379.331L95.8561 377.438L81.0224 377.479L80.9805 393.269L84.224 389.389Z" fill="black"/>
<path d="M80.0742 195.361V377.525H97.1589L112.035 229.006C112.035 228.511 112.231 228.036 112.581 227.686C112.93 227.337 113.404 227.14 113.899 227.14C114.393 227.14 114.867 227.337 115.217 227.686C115.567 228.036 115.763 228.511 115.763 229.006L131.584 377.525H148.664L142.504 195.361H80.0742Z" fill="#21252B"/>
<path d="M81.9247 385.286L82.3302 384.88C83.8513 383.402 85.8953 382.586 88.0157 382.614C90.1357 382.637 92.1597 383.5 93.6454 385.015L93.8691 385.286C94.6142 386.06 95.0332 387.095 95.0388 388.172V389.884C95.0346 390.882 95.1921 391.87 95.5048 392.817L96.9029 397.48C97.2608 398.604 97.443 399.774 97.4435 400.954V401.542C97.4216 401.989 97.2254 402.409 96.8969 402.712C96.5683 403.015 96.1335 403.178 95.6866 403.164H79.4921C79.2693 403.174 79.047 403.141 78.8378 403.066C78.6285 402.987 78.436 402.871 78.2725 402.721C78.1084 402.572 77.9761 402.39 77.8829 402.185C77.7901 401.985 77.7379 401.765 77.7305 401.542V401.313C77.7333 399.947 77.9616 398.59 78.4062 397.298L80.0327 392.747C80.4083 391.698 80.6054 390.597 80.6152 389.483L80.6618 388.177C80.7228 387.091 81.1712 386.065 81.9247 385.286Z" fill="#3F4249"/>
<path d="M79.6289 377.527H97.8367L98.2002 373.797H79.6708L79.6289 377.527Z" fill="#21252B"/>
<path opacity="0.3" d="M79.6289 377.527H87.2625L87.4442 373.797H79.6708L79.6289 377.527Z" fill="black"/>
<path opacity="0.5" d="M77.7305 401.293V401.522C77.7524 401.969 77.949 402.389 78.279 402.692C78.6085 402.995 79.0442 403.158 79.4921 403.144H95.6726C95.8949 403.154 96.1167 403.121 96.326 403.046C96.5352 402.967 96.7272 402.851 96.8903 402.701C97.0539 402.547 97.1858 402.366 97.2785 402.165C97.3708 401.965 97.4221 401.745 97.4295 401.522V400.934C97.437 400.705 97.4216 400.482 97.3829 400.258H77.7305V401.293Z" fill="black"/>
<path d="M131.6 388.484V399.895C131.598 400.333 131.684 400.767 131.85 401.172C132.018 401.578 132.263 401.946 132.572 402.259C132.882 402.567 133.25 402.814 133.655 402.982C134.059 403.15 134.493 403.234 134.932 403.234H173.696C174.067 403.234 174.422 403.084 174.684 402.823C174.947 402.562 175.094 402.208 175.094 401.835C175.089 400.51 174.669 399.219 173.893 398.141C173.117 397.069 172.025 396.262 170.769 395.838L162.022 392.951L150.935 384.339C150.378 383.905 149.688 383.672 148.981 383.69C148.274 383.704 147.594 383.966 147.058 384.427L142.146 388.624C141.792 388.932 141.366 389.142 140.909 389.235C140.452 389.333 139.977 389.31 139.531 389.17L133.31 387.23C133.113 387.174 132.905 387.16 132.703 387.197C132.501 387.23 132.31 387.314 132.144 387.435C131.979 387.556 131.843 387.715 131.749 387.897C131.654 388.078 131.603 388.279 131.6 388.484Z" fill="#3F4249"/>
<path d="M134.931 403.231H173.695C174.066 403.231 174.422 403.082 174.684 402.821C174.946 402.56 175.093 402.206 175.093 401.833C175.103 401.362 175.042 400.886 174.911 400.434H131.641C131.77 401.212 132.171 401.921 132.774 402.434C133.376 402.947 134.14 403.231 134.931 403.231Z" fill="black"/>
<path d="M150.705 388.891C150.622 388.891 150.542 388.858 150.481 388.802C150.416 388.737 150.379 388.648 150.379 388.555C150.379 388.462 150.416 388.373 150.481 388.308L152.812 385.781C152.878 385.72 152.965 385.688 153.056 385.688C153.147 385.688 153.233 385.725 153.297 385.79C153.361 385.855 153.398 385.939 153.399 386.033C153.401 386.121 153.367 386.21 153.306 386.275L150.975 388.802C150.893 388.854 150.801 388.882 150.705 388.891Z" fill="white"/>
<path d="M152.557 390.336C152.474 390.336 152.395 390.303 152.333 390.247C152.269 390.182 152.232 390.088 152.232 390C152.232 389.907 152.269 389.813 152.333 389.748L154.663 387.225C154.695 387.193 154.734 387.165 154.777 387.146C154.82 387.127 154.866 387.113 154.913 387.113C154.96 387.113 155.007 387.123 155.05 387.141C155.093 387.155 155.133 387.183 155.166 387.216C155.2 387.249 155.226 387.29 155.243 387.332C155.261 387.374 155.27 387.421 155.269 387.468C155.268 387.519 155.257 387.561 155.238 387.608C155.219 387.65 155.192 387.687 155.157 387.72L152.827 390.247C152.744 390.294 152.652 390.326 152.557 390.336Z" fill="white"/>
<path d="M154.407 391.776C154.322 391.776 154.241 391.743 154.178 391.687C154.113 391.622 154.076 391.533 154.076 391.44C154.076 391.347 154.113 391.258 154.178 391.193L156.508 388.666C156.576 388.61 156.663 388.582 156.751 388.586C156.839 388.591 156.922 388.624 156.985 388.689C157.047 388.75 157.084 388.834 157.088 388.922C157.092 389.011 157.063 389.095 157.007 389.165L154.677 391.687C154.602 391.753 154.505 391.781 154.407 391.776Z" fill="white"/>
<path d="M90.9393 389.119C90.8764 389.128 90.8134 389.109 90.7622 389.072C89.8325 388.629 88.8161 388.4 87.7866 388.4C86.7571 388.4 85.7407 388.629 84.811 389.072C84.7169 389.109 84.6134 389.105 84.5202 389.067C84.427 389.035 84.3506 388.965 84.3058 388.871C84.2611 388.783 84.2518 388.68 84.2788 388.582C84.3058 388.484 84.3673 388.405 84.4522 388.349C85.4975 387.836 86.6462 387.57 87.8099 387.57C88.9736 387.57 90.1223 387.836 91.1676 388.349C91.2576 388.405 91.3247 388.489 91.3573 388.587C91.3899 388.685 91.3853 388.792 91.3447 388.89C91.3032 388.96 91.2436 389.021 91.1728 389.058C91.1015 389.1 91.0208 389.119 90.9393 389.119Z" fill="white"/>
<path d="M90.9392 391.193C90.8767 391.202 90.8134 391.184 90.7621 391.146C89.8328 390.703 88.8164 390.47 87.7865 390.47C86.757 390.47 85.7401 390.703 84.8109 391.146C84.7643 391.188 84.7088 391.221 84.6482 391.235C84.5881 391.253 84.5243 391.258 84.4628 391.244C84.4012 391.235 84.343 391.207 84.2931 391.17C84.2428 391.132 84.2027 391.081 84.1748 391.025C84.1468 390.969 84.1328 390.908 84.1328 390.843C84.1333 390.782 84.1482 390.722 84.1761 390.666C84.2046 390.605 84.2456 390.559 84.2955 390.521C84.3458 390.484 84.4045 390.456 84.466 390.447C85.5113 389.934 86.6601 389.668 87.8238 389.668C88.9879 389.668 90.1362 389.934 91.1815 390.447C91.2715 390.503 91.3386 390.587 91.3712 390.685C91.4038 390.782 91.3992 390.89 91.3586 390.988C91.3129 391.058 91.25 391.109 91.1764 391.146C91.1027 391.184 91.0212 391.197 90.9392 391.193Z" fill="white"/>
<path d="M90.9356 393.245C90.8726 393.25 90.8097 393.236 90.7585 393.199C89.8287 392.756 88.8123 392.527 87.7829 392.527C86.7534 392.527 85.737 392.756 84.8073 393.199C84.7602 393.222 84.709 393.236 84.6563 393.241C84.6036 393.245 84.551 393.236 84.5011 393.222C84.4512 393.203 84.4046 393.175 84.365 393.143C84.3254 393.11 84.2928 393.068 84.269 393.017C84.2457 392.97 84.2313 392.919 84.2275 392.868C84.2238 392.816 84.2308 392.76 84.2471 392.714C84.2639 392.662 84.2905 392.616 84.3249 392.579C84.3594 392.537 84.4014 392.504 84.4484 392.481C85.4933 391.968 86.642 391.697 87.8062 391.697C88.9708 391.697 90.1195 391.968 91.1639 392.481C91.2543 392.532 91.3224 392.616 91.355 392.718C91.3876 392.816 91.3825 392.924 91.341 393.022C91.2986 393.091 91.2394 393.147 91.1681 393.189C91.0968 393.227 91.0167 393.245 90.9356 393.245Z" fill="white"/>
<path opacity="0.3" d="M141.784 375.451L124.928 235.233C124.667 233.059 123.621 231.055 121.985 229.601C120.35 228.146 118.239 227.342 116.05 227.338H113.93C114.399 227.336 114.852 227.512 115.198 227.83C115.544 228.148 115.757 228.585 115.794 229.054L131.522 376.762L141.784 375.451Z" fill="black"/>
<path d="M131.149 377.527H149.324L149.054 373.797H130.785L131.149 377.527Z" fill="#21252B"/>
<path d="M100.308 113.458L110.756 110.973L122.906 114.237V206.221H98.2715L100.308 113.458Z" fill="white"/>
<path opacity="0.3" d="M131.149 377.527H141.965L141.56 373.797H130.785L131.149 377.527Z" fill="black"/>
<path d="M102.73 114.811C105.196 116.522 108.147 117.393 111.146 117.297C114.146 117.2 117.034 116.141 119.385 114.275H119.851C120.364 113.846 120.145 113.156 120.056 112.512L119.418 102.067C119.653 101.053 119.769 100.015 119.763 98.975C119.935 93.6871 120.406 88.9167 120.406 88.9167C120.406 88.9167 102.883 77.9165 102.198 91.3649L101.937 94.8482L100.735 112.47C100.724 112.955 100.89 113.427 101.201 113.799L102.73 114.811Z" fill="#FC9D9D"/>
<path d="M121.965 89.7323C123.138 89.7323 124.283 89.3844 125.258 88.7325C126.233 88.0806 126.993 87.1545 127.442 86.0704C127.89 84.9867 128.008 83.7943 127.779 82.6435C127.55 81.4931 126.986 80.4359 126.156 79.6064C125.327 78.7768 124.271 78.2121 123.122 77.9832C121.972 77.7542 120.78 77.8717 119.696 78.3208C118.613 78.7698 117.687 79.5299 117.036 80.5054C116.385 81.481 116.037 82.6276 116.037 83.8008C116.037 84.5796 116.19 85.3513 116.487 86.0713C116.785 86.7913 117.221 87.4455 117.772 87.9962C118.323 88.5469 118.976 88.9839 119.696 89.2818C120.415 89.5798 121.186 89.7328 121.965 89.7323Z" fill="#21252B"/>
<path d="M123.612 80.315C123.612 80.315 127.461 106.895 113.956 107.45C102.268 107.944 102.612 89.8043 102.612 89.8043L104.225 78.1699L123.612 80.315Z" fill="#FC9D9D"/>
<path d="M121.621 81.0551L109.77 81.9131C109.064 81.9784 108.41 82.3141 107.946 82.8504C107.481 83.3861 107.241 84.0814 107.277 84.7902C107.303 85.1427 107.259 85.4976 107.148 85.8333C107.037 86.1691 106.861 86.4796 106.63 86.7473C106.399 87.015 106.117 87.2346 105.801 87.3931C105.485 87.5517 105.141 87.6464 104.788 87.672C104.6 87.6958 104.425 87.7872 104.298 87.9294C104.172 88.0716 104.1 88.2554 104.099 88.4461L104.271 91.0667C104.283 91.1469 104.277 91.2281 104.254 91.306C104.231 91.3834 104.191 91.4552 104.138 91.5163C104.085 91.5774 104.02 91.6263 103.946 91.6594C103.872 91.693 103.793 91.7102 103.712 91.7102C103.566 91.7238 103.421 91.6841 103.303 91.5983C103.184 91.5125 103.101 91.3866 103.069 91.2439L102.551 88.7445L102.039 87.9285L99.2425 89.6492C99.2425 89.6492 94.7174 82.6825 96.8844 76.3267C98.1287 72.7174 101.694 71.4258 103.409 71.1973C103.68 71.1604 103.939 71.0644 104.168 70.9161C104.398 70.7678 104.592 70.571 104.737 70.3393C105.427 69.1781 107.1 67.159 110.837 67.2849C111.893 67.29 112.93 67.5605 113.853 68.0716C114.777 68.5822 115.557 69.3171 116.122 70.2087C116.362 70.5701 116.723 70.834 117.14 70.952C117.557 71.0704 118.003 71.0345 118.396 70.8522C119.197 70.4773 120.081 70.3164 120.961 70.384C121.843 70.4521 122.691 70.7463 123.425 71.2392C127.293 73.706 125.746 80.4069 121.621 81.0551Z" fill="#21252B"/>
<path opacity="0.15" d="M101.95 95.7054C101.95 95.7054 103.068 95.794 103.669 95.3184L101.777 98.2421L101.95 95.7054Z" fill="black"/>
<path d="M102.598 88.745C102.598 88.745 101.736 86.2969 99.1584 87.416C96.241 88.703 96.8282 95.3433 101.777 95.707C104.355 95.9215 103.842 94.42 103.413 92.4008L102.598 88.745Z" fill="#FC9D9D"/>
<path opacity="0.15" d="M99.0328 89.132C99.229 88.9786 99.4536 88.8653 99.6931 88.7991C99.9331 88.7324 100.184 88.7142 100.431 88.745C100.671 88.8065 100.895 88.9194 101.087 89.0756C101.279 89.2314 101.435 89.4272 101.545 89.6496C101.861 90.1975 102.021 90.8215 102.011 91.4542L102.053 92.0138C102.043 92.087 102.008 92.1546 101.952 92.2031C101.897 92.2521 101.826 92.2791 101.752 92.2791C101.678 92.2791 101.607 92.2521 101.552 92.2031C101.496 92.1546 101.461 92.087 101.451 92.0138L101.41 91.4542C101.389 90.9301 101.257 90.4167 101.023 89.9481C100.863 89.6603 100.612 89.4342 100.31 89.3046C99.9788 89.2813 99.6503 89.3717 99.3776 89.561C99.3087 89.6025 99.2262 89.617 99.1474 89.6011C99.0682 89.5857 98.9974 89.5415 98.9489 89.4771C98.8603 89.4351 98.9116 89.2626 99.0328 89.132Z" fill="black"/>
<path opacity="0.15" d="M119.813 109.416L119.384 105.219C118.266 106.381 115.045 108.055 111.392 107.197C109.569 106.739 107.938 105.715 106.732 104.273C106.709 104.244 106.681 104.221 106.65 104.204C106.618 104.186 106.583 104.175 106.547 104.172C106.511 104.168 106.475 104.171 106.44 104.181C106.405 104.191 106.373 104.208 106.345 104.231C106.316 104.253 106.292 104.281 106.274 104.313C106.257 104.344 106.245 104.379 106.242 104.415C106.238 104.451 106.241 104.488 106.252 104.523C106.262 104.557 106.279 104.59 106.303 104.618C107.877 106.457 110.084 107.638 112.487 107.929C113.547 108.654 114.741 109.159 115.999 109.414C117.258 109.67 118.555 109.67 119.813 109.416Z" fill="black"/>
<g opacity="0.15">
<path opacity="0.15" d="M116.209 101.98C116.209 102.022 116.167 102.022 116.209 101.98C115.095 102.064 114.578 102.111 114.578 102.111C114.482 102.114 114.388 102.08 114.316 102.015C114.244 101.951 114.199 101.862 114.191 101.766C114.187 101.718 114.192 101.669 114.207 101.623C114.222 101.577 114.247 101.534 114.279 101.497C114.312 101.461 114.351 101.432 114.395 101.412C114.439 101.391 114.487 101.38 114.536 101.379L116.125 101.248C116.216 101.238 116.308 101.264 116.381 101.321C116.453 101.377 116.5 101.46 116.512 101.551C116.512 101.799 116.381 101.98 116.209 101.98Z" fill="black"/>
</g>
<g opacity="0.15">
<path opacity="0.15" d="M116.813 100.436C113.891 100.865 112.563 99.2744 112.088 98.5004C112.043 98.4206 112.031 98.326 112.056 98.2378C112.08 98.1492 112.139 98.0742 112.218 98.0294C112.298 97.9842 112.392 97.9725 112.481 97.9967C112.569 98.0215 112.644 98.0802 112.689 98.16C113.122 98.934 114.581 100.608 118.104 99.447C118.148 99.4283 118.194 99.4185 118.241 99.419C118.288 99.4195 118.335 99.4292 118.378 99.4488C118.421 99.4679 118.459 99.4959 118.491 99.5309C118.523 99.5659 118.547 99.6069 118.562 99.6517C118.577 99.6965 118.582 99.7435 118.578 99.7906C118.574 99.8377 118.56 99.8834 118.536 99.9245C118.513 99.9655 118.483 100.002 118.445 100.03C118.408 100.059 118.364 100.079 118.319 100.09C117.829 100.253 117.325 100.369 116.813 100.436Z" fill="black"/>
</g>
<path d="M112.776 93.5627C112.989 93.5627 113.197 93.4992 113.374 93.3813C113.551 93.2628 113.689 93.0945 113.771 92.8977C113.852 92.7009 113.873 92.4841 113.832 92.2752C113.79 92.0663 113.688 91.8746 113.537 91.724C113.387 91.5729 113.195 91.4703 112.986 91.4288C112.777 91.3873 112.56 91.4088 112.364 91.4904C112.167 91.572 111.999 91.71 111.881 91.8872C111.763 92.0639 111.699 92.2724 111.699 92.4855C111.699 92.7713 111.813 93.0451 112.015 93.247C112.217 93.4493 112.491 93.5627 112.776 93.5627Z" fill="#21252B"/>
<path d="M113.246 92.7872C113.298 92.7797 113.346 92.7536 113.38 92.7135C113.414 92.6739 113.433 92.623 113.433 92.5704C113.433 92.5177 113.414 92.4668 113.38 92.4272C113.346 92.3876 113.298 92.3614 113.246 92.3535C113.194 92.3614 113.146 92.3876 113.112 92.4272C113.078 92.4668 113.059 92.5177 113.059 92.5704C113.059 92.623 113.078 92.6739 113.112 92.7135C113.146 92.7536 113.194 92.7797 113.246 92.7872Z" fill="white"/>
<path d="M121.284 93.6056C121.497 93.6056 121.705 93.5422 121.882 93.4238C122.059 93.3058 122.197 93.1374 122.279 92.9407C122.36 92.7439 122.381 92.5271 122.34 92.3181C122.298 92.1092 122.196 91.9171 122.045 91.7665C121.895 91.6159 121.703 91.5133 121.494 91.4718C121.285 91.4303 121.069 91.4517 120.872 91.5333C120.675 91.6145 120.507 91.753 120.389 91.9297C120.27 92.1069 120.207 92.3153 120.207 92.5284C120.207 92.6697 120.234 92.8101 120.288 92.9411C120.342 93.0722 120.421 93.1911 120.521 93.2913C120.621 93.3916 120.74 93.4709 120.871 93.5249C121.002 93.5786 121.142 93.6061 121.284 93.6056Z" fill="#21252B"/>
<path d="M121.748 92.8294C121.804 92.8294 121.859 92.807 121.899 92.7665C121.94 92.7264 121.962 92.6718 121.962 92.6149C121.962 92.5865 121.957 92.5585 121.947 92.5319C121.936 92.5058 121.92 92.482 121.9 92.462C121.88 92.4419 121.857 92.4261 121.831 92.4153C121.804 92.4051 121.776 92.4 121.748 92.4004C121.691 92.4004 121.636 92.4228 121.596 92.4634C121.556 92.5035 121.533 92.558 121.533 92.6149C121.535 92.6713 121.557 92.7254 121.598 92.7651C121.637 92.8052 121.691 92.828 121.748 92.8294Z" fill="white"/>
<g opacity="0.15">
<path opacity="0.15" d="M117.585 97.8149L116.187 97.8989C116.104 97.8961 116.024 97.8648 115.962 97.8103C115.899 97.7562 115.857 97.682 115.842 97.6004C115.846 97.517 115.878 97.4377 115.933 97.3747C115.988 97.3123 116.063 97.2698 116.145 97.2554L117.543 97.1714C117.631 97.1696 117.717 97.1504 117.797 97.1141C117.877 97.0782 117.949 97.0259 118.008 96.9611C118.068 96.8968 118.113 96.8203 118.143 96.7373C118.171 96.6547 118.183 96.5666 118.177 96.4789C118.171 96.3913 118.147 96.3059 118.108 96.2276C118.068 96.1493 118.012 96.0802 117.944 96.0243C117.876 95.9683 117.798 95.9264 117.714 95.9016C117.63 95.8769 117.541 95.8695 117.454 95.8797C117.372 95.8765 117.293 95.8452 117.231 95.7907C117.169 95.7366 117.128 95.6624 117.114 95.5813C117.072 95.4088 117.24 95.2782 117.412 95.2362C117.746 95.2185 118.074 95.3285 118.329 95.5444C118.585 95.7604 118.748 96.0653 118.787 96.3973C118.809 96.7433 118.697 97.0847 118.472 97.3491C118.248 97.6135 117.93 97.7804 117.585 97.8149Z" fill="black"/>
</g>
<path d="M124.425 89.0944L119.765 88.9545H119.122L115.044 88.8333H115.002L109.722 88.6747C109.519 88.6677 109.316 88.7013 109.126 88.7731C108.935 88.8449 108.761 88.9536 108.613 89.0935C108.465 89.2329 108.345 89.4003 108.262 89.5864C108.179 89.772 108.134 89.9725 108.128 90.1763L108.096 91.3793C108.079 91.9319 108.172 92.4822 108.368 92.9993C108.564 93.516 108.86 93.9893 109.239 94.3917C109.617 94.7941 110.072 95.1182 110.576 95.3449C111.08 95.5719 111.623 95.6969 112.176 95.7137C112.728 95.73 113.278 95.6377 113.795 95.4414C114.312 95.2451 114.785 94.949 115.187 94.5698C115.589 94.1907 115.912 93.7361 116.139 93.232C116.366 92.7274 116.491 92.1837 116.507 91.6312L116.545 90.4281C116.553 90.0821 116.441 89.7444 116.228 89.4721L117.859 89.5188C117.645 89.7818 117.529 90.1114 117.533 90.4514L117.495 91.6545C117.463 92.7708 117.875 93.855 118.641 94.6678C119.407 95.4806 120.464 95.9557 121.58 95.9888C122.696 96.0215 123.78 95.6093 124.592 94.8426C125.404 94.076 125.879 93.018 125.912 91.9016L125.945 90.6985C125.954 90.4924 125.922 90.2863 125.85 90.0928C125.778 89.8997 125.668 89.7225 125.526 89.5728C125.384 89.4232 125.213 89.3038 125.024 89.2213C124.835 89.1392 124.632 89.0958 124.425 89.0944ZM115.925 90.3908L115.888 91.5938C115.84 92.5279 115.43 93.4064 114.745 94.0424C114.06 94.679 113.154 95.0226 112.22 95.0007C111.286 94.9788 110.396 94.5932 109.742 93.9254C109.087 93.2576 108.719 92.3609 108.715 91.426L108.753 90.2229C108.753 90.0965 108.778 89.9715 108.827 89.8559C108.877 89.7398 108.949 89.6349 109.04 89.5481C109.132 89.4609 109.239 89.3929 109.357 89.3486C109.475 89.3043 109.601 89.2842 109.727 89.2903L115.007 89.4441H115.049C115.289 89.4581 115.513 89.5649 115.677 89.7412C115.84 89.9174 115.929 90.1501 115.925 90.3908ZM125.292 91.8736C125.245 92.8077 124.834 93.6867 124.149 94.3232C123.463 94.9592 122.557 95.3029 121.622 95.2805C120.687 95.2577 119.798 94.8711 119.144 94.2024C118.49 93.5342 118.123 92.6365 118.12 91.7011L118.157 90.498C118.157 90.3721 118.182 90.2476 118.232 90.132C118.281 90.0163 118.353 89.9119 118.443 89.8247C118.534 89.7375 118.641 89.6698 118.758 89.6251C118.876 89.5803 119.001 89.5603 119.127 89.5654H119.77L124.453 89.7006C124.579 89.7001 124.704 89.7258 124.82 89.7752C124.936 89.8247 125.04 89.8969 125.128 89.9883C125.215 90.0793 125.282 90.187 125.327 90.305C125.371 90.4234 125.391 90.5488 125.385 90.6752L125.292 91.8736Z" fill="#21252B"/>
<path opacity="0.15" d="M122.213 126.516L116.672 215.194C116.669 215.605 116.747 216.013 116.902 216.394C117.057 216.775 117.286 217.121 117.575 217.413C117.865 217.705 118.208 217.937 118.588 218.096C118.967 218.254 119.374 218.336 119.785 218.337H143.371V204.93L122.213 126.516Z" fill="black"/>
<path opacity="0.3" d="M103.104 134.443L94.096 200.375V209.552L80.0312 209.389V373.693L87.3759 373.74L94.0494 230.541L94.2218 226.456C94.2647 225.324 94.6967 224.242 95.4447 223.392C96.1927 222.543 97.2114 221.978 98.3276 221.793L104.144 220.823C104.576 220.823 105.004 220.737 105.403 220.57C105.802 220.403 106.163 220.158 106.467 219.85C106.771 219.542 107.01 219.177 107.171 218.775C107.332 218.374 107.412 217.945 107.406 217.512L107.592 187.062C107.701 169.422 106.199 151.81 103.104 134.443Z" fill="black"/>
<path d="M127.92 113.061L144.128 117.211C146.323 117.716 148.321 118.853 149.877 120.483C151.432 122.112 152.476 124.162 152.88 126.379L162.378 175.724L143.797 173.858L142.991 215.826C142.985 216.225 142.822 216.605 142.538 216.884C142.253 217.164 141.87 217.32 141.472 217.318H123.646C123.248 217.318 122.866 217.163 122.581 216.885C122.297 216.607 122.132 216.229 122.122 215.831L120.533 111.844L127.92 113.061Z" fill="#00B77E"/>
<path d="M100.31 112.527C103.72 133.316 105.307 154.363 105.054 175.428L104.565 215.796C104.557 216.196 104.394 216.577 104.109 216.857C103.824 217.137 103.44 217.293 103.041 217.293H79.7395C79.3387 217.293 78.9537 217.135 78.6685 216.853C78.3833 216.571 78.2207 216.188 78.2156 215.787L77.9406 181.075L70.5121 183.873L67.5342 184.661C63.8479 185.631 60.0497 183.094 59.7748 179.289C59.7407 178.85 59.758 178.409 59.826 177.974L67.646 126.68C67.9988 124.385 69.0376 122.25 70.6253 120.556C72.2131 118.863 74.2757 117.689 76.5425 117.19L90.0574 114.192C93.4403 113.441 96.8633 112.885 100.31 112.527Z" fill="#00B77E"/>
<path d="M145.98 173.881L162.375 175.727L157.748 151.68L145.98 153.564V173.881Z" fill="#FC9D9D"/>
<path opacity="0.15" d="M73.7461 138.127C73.7461 138.127 76.2533 140.384 78.1314 146.147L73.7461 138.127Z" fill="black"/>
<path opacity="0.15" d="M145.846 157.344V138.127L149.411 158.178C149.942 161.343 151.613 164.203 154.108 166.217L161.947 172.382L162.59 176.252L148.497 171.547L145.762 157.213" fill="black"/>
<path d="M151.502 160.894C151.502 160.894 152.756 159.22 153.175 160.894L152.756 168.411L150.668 163.398L151.502 160.894Z" fill="#FC9D9D"/>
<path opacity="0.15" d="M151.502 160.894C151.502 160.894 152.756 159.22 153.175 160.894L152.756 168.411L150.668 163.398L151.502 160.894Z" fill="black"/>
<path opacity="0.15" d="M148.776 125.178C146.688 129.375 145.854 137.302 145.854 137.302C145.854 137.302 146.897 132.499 148.566 131.24" fill="black"/>
<path opacity="0.15" d="M77.8828 187.365L78.2137 215.81C78.2183 216.211 78.3815 216.594 78.6667 216.876C78.9519 217.158 79.3368 217.316 79.7376 217.316H84.6962L84.4631 178.006L81.4619 166.983L78.7962 139.107C78.7939 139.064 78.7837 139.023 78.7655 138.985C78.7473 138.946 78.7217 138.912 78.6904 138.884C78.6592 138.855 78.6224 138.833 78.5828 138.819C78.5427 138.805 78.5008 138.799 78.4584 138.801C78.416 138.803 78.3745 138.814 78.3367 138.832C78.2985 138.85 78.264 138.875 78.2356 138.907C78.2072 138.938 78.1853 138.975 78.1713 139.015C78.1573 139.054 78.1508 139.097 78.1531 139.139L77.8828 187.365Z" fill="black"/>
<path d="M77.9406 153.56L63.9597 151.229L59.826 177.971C59.758 178.409 59.7407 178.854 59.7748 179.296C60.0544 183.096 63.8525 185.628 67.5341 184.658L70.5121 183.87L71.8636 183.404C75.7521 182.068 79.4985 180.35 83.0483 178.275L77.9219 162.42L77.9406 153.56Z" fill="#FC9D9D"/>
<path d="M152.104 168.416L161.397 173.9C162.24 174.399 162.576 175.397 162.702 176.441C163.089 179.579 161.621 187.898 153.116 185.301C152.48 185.095 151.932 184.681 151.559 184.126L145.943 175.947L152.104 168.416Z" fill="#FC9D9D"/>
<path opacity="0.15" d="M148.641 176.242C150.202 174.866 151.8 172.357 152.29 168.622L151.535 168.207L145.598 176.134L146.53 177.179L151.572 184.141C151.948 184.695 152.497 185.108 153.133 185.316C159.085 187.135 161.568 183.978 162.431 180.112C158.302 188.478 151.041 181.087 148.524 178.107C148.302 177.84 148.191 177.498 148.212 177.151C148.234 176.804 148.387 176.479 148.641 176.242Z" fill="black"/>
<path d="M77.9895 162.594L109.544 154.42L123.199 148.954C123.821 148.707 124.507 148.671 125.152 148.852L131.564 150.661C132.046 150.799 132.484 151.057 132.837 151.412L136.83 155.404C136.941 155.515 137.027 155.649 137.082 155.796C137.137 155.944 137.159 156.101 137.149 156.258C137.138 156.415 137.093 156.567 137.018 156.705C136.943 156.844 136.839 156.964 136.714 157.059C136.525 157.202 136.294 157.28 136.057 157.28C135.82 157.28 135.589 157.202 135.4 157.059L131.047 153.795L127.319 152.676C127.194 152.638 127.061 152.645 126.941 152.696C126.822 152.747 126.725 152.839 126.666 152.955C126.609 153.073 126.594 153.207 126.625 153.335C126.657 153.462 126.732 153.574 126.839 153.65L131.569 157.031C131.789 157.181 131.955 157.399 132.039 157.652C132.123 157.904 132.122 158.178 132.035 158.43C131.953 158.686 131.789 158.907 131.569 159.059L131.201 159.307C131.035 159.416 130.846 159.483 130.649 159.503C130.451 159.524 130.252 159.496 130.068 159.423L128.577 158.826L129.169 159.218C129.359 159.345 129.502 159.531 129.576 159.748C129.65 159.965 129.651 160.2 129.579 160.416C129.528 160.571 129.442 160.712 129.327 160.826C129.212 160.941 129.071 161.028 128.917 161.079L128.451 161.228C128.251 161.293 128.036 161.293 127.836 161.228L125.226 160.482L127.496 161.456C127.582 161.492 127.659 161.546 127.724 161.613C127.788 161.681 127.837 161.761 127.868 161.849C127.899 161.937 127.912 162.031 127.905 162.124C127.898 162.216 127.871 162.307 127.827 162.389C127.764 162.521 127.659 162.628 127.528 162.692L126.876 163.018C126.343 163.285 125.744 163.391 125.152 163.326L122.3 163.009C122.3 163.009 118.543 163.844 112.699 163.424L79.7185 180.137L73.4551 173.035L77.9895 162.594Z" fill="#FC9D9D"/>
<path opacity="0.15" d="M127.498 161.956C127.498 163.625 122.073 161.956 122.073 161.956C119.566 161.956 112.054 160.701 112.054 160.701L78.1082 174.313V174.397C59.3272 182.268 60.3199 174.672 60.3199 174.662L59.8166 177.973C59.7481 178.417 59.7308 178.868 59.7653 179.316C60.0682 183.28 63.6846 185.672 67.5247 184.66L70.5026 183.872L71.9473 183.406C74.9979 182.469 77.9432 181.219 80.7366 179.675L80.6527 179.629L112.678 163.401C118.522 163.821 122.278 162.986 122.278 162.986L125.131 163.303C125.723 163.368 126.321 163.261 126.855 162.995L127.507 162.669C127.638 162.604 127.743 162.497 127.806 162.366V162.338L127.498 161.956Z" fill="black"/>
<path opacity="0.15" d="M128.887 158.943L125.41 157.344" stroke="black" stroke-width="0.9" stroke-miterlimit="10" stroke-linecap="round"/>
<path opacity="0.15" d="M126.467 161.017L123.74 159.852" stroke="black" stroke-width="0.9" stroke-miterlimit="10" stroke-linecap="round"/>
<path opacity="0.15" d="M94.9623 113.245L93.7832 137.242L102.945 131.875L100.308 112.527L94.9623 113.245Z" fill="black"/>
<path d="M95.6488 113.115L95.043 134.91L102.737 131.236L100.169 110.662L95.6488 113.115Z" fill="#00B77E"/>
<path opacity="0.15" d="M124.784 112.183L129.668 136.31L120.767 132.15L120.348 111.129L124.784 112.183Z" fill="black"/>
<path d="M120.348 110.195L120.767 131.235L128.27 134.443L124.076 111.949L120.348 110.195Z" fill="#00B77E"/>
<path opacity="0.15" d="M77.9404 162.42L73.7461 163.819L77.8844 160.686L77.9404 162.42Z" fill="black"/>
<path d="M135.887 155.141L118.998 175.612L120.294 177.015L147.705 172.833L161.3 152.366L160.037 151.229L135.887 155.141Z" fill="#263238"/>
<path opacity="0.15" d="M120.347 176.876L136.658 156.824L161.358 152.161L159.96 151.229L135.726 154.959L118.949 175.943L120.347 176.876Z" fill="black"/>
<path d="M146.913 160.555C147.427 160.555 147.845 160.137 147.845 159.622C147.845 159.107 147.427 158.689 146.913 158.689C146.398 158.689 145.98 159.107 145.98 159.622C145.98 160.137 146.398 160.555 146.913 160.555Z" fill="#FAFAFA"/>
<path d="M153.804 160.557C153.277 160.556 152.763 160.714 152.327 161.011C151.893 161.308 151.558 161.73 151.366 162.221C150.961 163.28 150.365 164.516 149.707 164.875C148.486 165.542 146.385 166.073 145.275 165.532C144.166 164.991 139.739 161 138.965 161.443C138.192 161.886 137.525 162.884 138.299 163.774C139.073 164.665 143.174 167.318 142.4 168.204C141.626 169.09 132.986 165.192 131.658 165.537C130.33 165.882 129.552 166.698 130.325 167.23C131.099 167.761 136.971 169.981 137.316 170.755C137.316 170.755 128.461 168.423 128.126 168.983C127.79 169.542 127.24 170.424 128.126 170.755C129.011 171.086 136.654 173.086 137.316 173.413C138.415 173.87 139.56 174.205 140.732 174.411C141.94 174.728 143.132 175.106 144.302 175.544C146.095 176.165 148.053 176.112 149.81 175.395L150.709 175.031C151.39 174.753 151.966 174.269 152.358 173.647C152.749 173.025 152.935 172.296 152.89 171.562L152.709 168.54L153.678 166.045L153.804 160.557Z" fill="#FC9D9D"/>
<path d="M136.66 172.212L130.601 171.746C130.601 171.746 129.632 172.068 130.135 172.716C130.355 172.981 130.67 173.148 131.011 173.182L141.32 174.544L136.66 172.212Z" fill="#FC9D9D"/>
</svg>
